<svg width="50" height="50" viewBox="0 0 50 50" fill="none" xmlns="http://www.w3.org/2000/svg">
<path d="M49.4737 9.07758L48.2754 14.4224L46.9823 20.1896L45.6892 25.9655L44.7495 30.1552C44.6831 30.4532 44.4638 30.6938 44.1733 30.7878C43.8827 30.8817 43.5641 30.8148 43.3358 30.6121C42.1449 29.4779 40.7081 28.6341 39.1375 28.1465C37.1986 27.6017 35.1705 27.4493 33.172 27.6983C31.048 27.9494 28.9408 28.3265 26.8616 28.8276C24.7814 29.3217 22.6745 29.6959 20.5513 29.9483C18.5528 30.1972 16.5246 30.0448 14.5858 29.5V29.4914C12.5189 28.8426 10.6895 27.5981 9.32715 25.9138L10.6203 20.1465L11.922 14.3707L13.2151 8.60344L14.5082 2.82758C15.8703 4.51409 17.6994 5.76151 19.7668 6.41378C21.7028 6.95829 23.728 7.1107 25.7237 6.86206C27.8475 6.61392 29.9547 6.2397 32.034 5.74137C34.1173 5.24791 36.2271 4.87374 38.353 4.62068C40.3487 4.37204 42.3739 4.52445 44.3099 5.06896C46.2346 5.66592 47.9544 6.78855 49.2754 8.31034C49.4621 8.51875 49.536 8.80481 49.4737 9.07758Z" fill="black"/>
<path d="M18.4736 12.1896C18.0339 14.112 17.6029 16.0258 17.1719 17.9482C15.1076 17.2991 13.2811 16.0545 11.9219 14.3707L13.215 8.60342C14.5771 10.2899 16.4062 11.5374 18.4736 12.1896Z" fill="#EFF321"/>
<path d="M15.8789 23.7242C15.7927 24.1121 15.7065 24.4914 15.6203 24.8793C15.2754 26.4224 14.9306 27.9598 14.5858 29.4914C12.5189 28.8427 10.6895 27.5981 9.32715 25.9138L10.6203 20.1466C11.9802 21.8335 13.8104 23.0787 15.8789 23.7242Z" fill="#EFF321"/>
<path d="M25.7236 6.86206C25.2926 8.78448 24.8616 10.7155 24.4305 12.6379C22.4349 12.8869 20.4096 12.7345 18.4736 12.1897C18.896 10.2672 19.3357 8.3362 19.7667 6.41379C21.7027 6.9583 23.728 7.1107 25.7236 6.86206Z" fill="#EFF321"/>
<path d="M28.1542 23.0517C28.068 23.4396 27.9818 23.8189 27.8956 24.2068C27.5508 25.7499 27.206 27.2844 26.8611 28.8275C24.7809 29.3217 22.674 29.6959 20.5508 29.9482C20.8956 28.4051 21.2404 26.8706 21.5853 25.3275C21.6715 24.9396 21.7577 24.5603 21.8439 24.1724C23.9669 23.9185 26.0737 23.5444 28.1542 23.0517Z" fill="#EFF321"/>
<path d="M38.3533 4.62067L37.0602 10.3879C34.9335 10.6397 32.8235 11.0168 30.7412 11.5172C31.1722 9.5948 31.6033 7.66377 32.0343 5.74136C34.1176 5.2479 36.2274 4.87373 38.3533 4.62067Z" fill="#EFF321"/>
<path d="M40.4305 22.3879C40.3443 22.7673 40.2581 23.1552 40.1719 23.5345C39.827 25.069 39.4822 26.6121 39.1374 28.1466C37.1985 27.6017 35.1704 27.4493 33.1719 27.6983C33.5167 26.1638 33.8615 24.6207 34.2064 23.0862C34.2926 22.6983 34.3788 22.319 34.465 21.931C36.464 21.6809 38.4929 21.8363 40.4305 22.3879Z" fill="#EFF321"/>
<path d="M46.9814 20.1896L45.6883 25.9655C44.3259 24.2812 42.4966 23.0367 40.4297 22.3879C40.8607 20.4655 41.2918 18.5402 41.7228 16.6121C43.7897 17.2608 45.619 18.5054 46.9814 20.1896Z" fill="#EFF321"/>
<path d="M49.4735 9.07759L48.2752 14.4224C46.9128 12.7381 45.0835 11.4936 43.0166 10.8448C43.4476 8.92242 43.8787 6.99713 44.3097 5.06897C46.2344 5.66594 47.9542 6.78856 49.2752 8.31035C49.4619 8.51876 49.5359 8.80482 49.4735 9.07759Z" fill="#EFF321"/>
<path d="M43.0156 10.8448L41.7225 16.612C39.7879 16.0604 37.7618 15.905 35.7656 16.1551L37.0587 10.3879C39.0549 10.1378 41.081 10.2932 43.0156 10.8448Z" fill="#EFF321"/>
<path d="M23.1375 18.4051L21.8444 24.1724C19.8461 24.43 17.8163 24.2775 15.8789 23.7241C16.3099 21.8017 16.741 19.8707 17.172 17.9482C19.1095 18.5002 21.1385 18.6556 23.1375 18.4051Z" fill="#EFF321"/>
<path d="M30.7411 11.5172C30.3101 13.4397 29.8791 15.3535 29.448 17.2759C27.3687 17.7762 25.2615 18.1533 23.1377 18.4052L24.4308 12.6379C26.5539 12.3849 28.6608 12.0107 30.7411 11.5172Z" fill="#EFF321"/>
<path d="M35.7664 16.1551C35.3267 18.0775 34.8957 20.0086 34.4646 21.931C32.3415 22.1833 30.2345 22.5575 28.1543 23.0517C28.5853 21.1293 29.0164 19.1982 29.4474 17.2758C31.5307 16.7824 33.6404 16.4082 35.7664 16.1551Z" fill="#EFF321"/>
<path d="M15.4133 2.38793C15.4103 2.5619 15.3901 2.73516 15.353 2.90517L5.20644 48.1552C5.07012 48.7679 4.69491 49.3009 4.16406 49.6359C3.63321 49.9709 2.99063 50.0803 2.37886 49.9397L2.29265 49.9138C1.06508 49.5934 0.310912 48.3593 0.585754 47.1207L10.7323 1.86206C11.0226 0.590088 12.2868 -0.207713 13.5599 0.0775805H13.5771C14.6504 0.329525 15.4102 1.2855 15.4133 2.38793Z" fill="#EFF321"/>
<path d="M15.4127 2.38795C15.4096 2.56193 15.3894 2.73518 15.3523 2.90519L5.20579 48.1552C5.06946 48.7679 4.69425 49.3009 4.1634 49.6359C3.63256 49.971 2.98997 50.0803 2.3782 49.9397L2.29199 49.9138L13.5765 0.0776062C14.6497 0.329551 15.4095 1.28553 15.4127 2.38795Z" fill="black"/>
</svg>
